PathFileType	4	(X/Y/Z)	 s09c0202.trc
DataRate	CameraRate	NumFrames	NumMarkers	Units	OrigDataRate	OrigDataStartFrame	OrigNumFrames
200	200	4	50	mm	200	1251	2000
Frame#	Time	racr			lacr			c7			jug			rlel			rdr			llel			ldr			s2			lic			ric			lasi			rasi			rpsi			lpsi			rgt			lgt			rth1			rth2			rth3			rth4			rlfc			rmfc			rsh1			rsh2			rsh3			rsh4			rlmal			rmmal			rcal			rtoe			rmt5			lth1			lth2			lth4			lth3			llfc			lmfc			llmal			lmmal			lcal			lmt5			lsh1			lsh2			lsh3			lsh4			ltoe			SBIKE			LBIKE			RBIKE			
		X1	Y1	Z1	X2	Y2	Z2	X3	Y3	Z3	X4	Y4	Z4	X5	Y5	Z5	X6	Y6	Z6	X7	Y7	Z7	X8	Y8	Z8	X9	Y9	Z9	X10	Y10	Z10	X11	Y11	Z11	X12	Y12	Z12	X13	Y13	Z13	X14	Y14	Z14	X15	Y15	Z15	X16	Y16	Z16	X17	Y17	Z17	X18	Y18	Z18	X19	Y19	Z19	X20	Y20	Z20	X21	Y21	Z21	X22	Y22	Z22	X23	Y23	Z23	X24	Y24	Z24	X25	Y25	Z25	X26	Y26	Z26	X27	Y27	Z27	X28	Y28	Z28	X29	Y29	Z29	X30	Y30	Z30	X31	Y31	Z31	X32	Y32	Z32	X33	Y33	Z33	X34	Y34	Z34	X35	Y35	Z35	X36	Y36	Z36	X37	Y37	Z37	X38	Y38	Z38	X39	Y39	Z39	X40	Y40	Z40	X41	Y41	Z41	X42	Y42	Z42	X43	Y43	Z43	X44	Y44	Z44	X45	Y45	Z45	X46	Y46	Z46	X47	Y47	Z47	X48	Y48	Z48	X49	Y49	Z49	X50	Y50	Z50	
1251	6.2550	505.135703	1244.446203	-71.240576	463.936990	1230.624596	-439.377445	479.445829	1322.320547	-254.149698	467.514383	1187.578487	-249.622297	478.557370	1019.337845	53.146197	678.199796	906.173195	-37.409007	430.421412	979.963292	-564.088917	660.338090	910.691305	-475.066108	5.683613	1118.418055	-186.972644	123.477627	1145.627594	-351.745778	155.670303	1108.535968	-52.612763	176.505098	1096.230161	-331.591309	198.808004	1062.155381	-82.986089	39.033007	1143.548257	-128.443142	24.249309	1161.828407	-235.123410	131.298646	957.663569	-21.896769	122.813866	1046.244685	-397.833569	203.052742	846.021618	-32.450365	263.804460	782.193095	-41.108104	278.163586	695.456573	-55.873114	291.838906	797.093264	-60.420340	311.831432	608.554017	-90.231028	296.590054	591.122047	-188.424297	270.300454	516.761315	-59.321872	274.748303	428.140293	-73.273464	234.493332	350.233654	-73.215512	299.516739	426.293657	-104.149067	206.843503	251.394851	-72.959290	207.852836	261.290724	-148.472762	124.402972	243.718265	-112.208033	366.771936	131.918162	-131.216302	288.363574	147.468929	-61.906676	256.491157	1008.198547	-386.694269	339.883890	1004.462737	-370.455014	347.432451	1031.548394	-343.884071	417.856589	958.764547	-373.312791	496.270532	894.040576	-358.007187	502.957820	864.991226	-257.270617	262.695089	611.170599	-404.406449	273.758679	610.903141	-329.063775	178.259343	599.554981	-369.708840	319.963463	497.353618	-429.317817	438.169081	818.298624	-387.233015	399.461008	740.331364	-388.709803	325.507307	691.298822	-396.694281	419.826112	722.202601	-361.901931	411.111685	478.779138	-360.510996	-64.540406	853.106121	-235.094444	20.935693	86.445334	-441.880067	21.124026	84.217273	-43.476356	
1252	6.2600	506.994844	1242.242243	-73.563856	460.735088	1231.391745	-441.667129	480.065175	1321.446328	-255.402198	466.883718	1186.664965	-251.912943	479.286834	1018.443491	52.845120	678.894773	906.431902	-37.114065	429.700657	979.910922	-564.166482	659.153633	910.799705	-473.907236	5.723926	1119.670865	-184.633711	121.943469	1148.240708	-349.713398	157.157672	1109.091411	-51.499639	174.920303	1098.248554	-330.517185	199.786571	1062.485979	-82.084427	39.802209	1144.516397	-126.219878	24.148736	1163.619783	-232.321238	131.637689	958.390511	-21.486431	121.413914	1050.372208	-396.848911	204.145076	846.783759	-32.507667	265.305429	783.411827	-41.120626	280.129974	696.945301	-56.308074	293.404008	798.624991	-60.092817	313.896861	609.443635	-90.830662	298.912960	592.348355	-188.920231	271.073509	518.484096	-59.821202	272.965876	429.910193	-73.880606	230.640269	353.069679	-73.481265	297.319033	427.269891	-105.040198	200.918175	255.681127	-72.686407	201.382938	264.407416	-148.630418	118.295867	249.348998	-112.383457	356.491384	130.451041	-131.291485	278.617269	148.793512	-61.889748	255.183642	1011.656177	-385.874029	338.630792	1007.180063	-369.684727	346.310316	1033.881358	-342.813334	416.352396	960.955954	-373.158814	495.027773	895.873881	-358.199726	501.398113	867.627348	-257.210637	268.119917	607.502454	-404.544992	278.904132	607.458727	-329.356891	183.887525	592.645161	-369.811589	329.292876	496.027943	-429.685669	438.175893	818.939922	-387.423813	401.506259	740.152214	-388.906083	328.791100	689.408982	-396.878675	422.370679	722.446045	-362.039090	420.902297	481.087211	-360.761829	-64.513705	853.161968	-234.926844	20.892666	86.521474	-441.810981	21.103540	84.239647	-43.474794	
1253	6.2650	508.598864	1239.874089	-75.895522	457.837693	1232.255810	-443.925426	480.550281	1320.269420	-256.958545	466.119614	1185.724021	-254.073407	479.802223	1017.667031	52.508542	679.595792	906.682127	-36.635064	428.849904	979.877096	-564.210417	657.842133	910.845936	-472.620812	7.660598	1120.335042	-183.178501	120.848839	1150.894320	-347.936281	158.716767	1109.861747	-50.179907	173.338585	1100.269056	-329.512165	200.574427	1062.957304	-81.199112	40.373227	1145.619413	-124.890764	24.073394	1165.691174	-229.740655	131.914852	959.181135	-21.260061	120.096884	1054.701359	-395.857238	205.552154	847.719172	-32.702846	267.236483	784.838822	-41.292095	282.871887	698.604423	-56.804560	295.298245	800.225824	-59.767685	316.562643	610.570769	-91.539615	301.603194	593.779075	-189.492000	272.218189	520.610306	-60.463446	271.432124	431.837796	-74.655361	227.029086	356.364417	-73.783686	295.484196	428.839832	-105.982844	194.754022	260.003652	-72.415871	195.178196	267.896485	-148.680639	112.736468	255.595187	-112.585303	346.194936	129.933134	-131.164714	269.006910	150.747331	-61.898808	253.930669	1014.442982	-385.308224	337.296199	1009.010100	-369.256678	345.266881	1035.498837	-342.174120	414.579799	962.380672	-373.321018	493.700187	896.373305	-358.920327	499.638063	868.968982	-257.758121	273.185168	602.644475	-404.687054	284.051582	603.366947	-329.631333	189.424673	585.155010	-370.292236	338.461288	493.812835	-429.964975	438.111977	818.572858	-387.769310	403.319901	738.841973	-389.381766	331.928042	686.418070	-397.133265	424.716315	721.740614	-362.557326	430.770239	482.842295	-360.360152	-64.478833	853.211066	-234.744421	20.873581	86.631473	-441.783339	21.116052	84.244692	-43.453101	
1254	6.2700	510.043834	1237.519588	-78.180615	455.433547	1232.577958	-445.167257	481.636332	1318.692781	-258.487025	465.207616	1184.910930	-256.049290	480.147402	1016.731317	52.014178	680.157217	906.823684	-35.991992	428.007139	979.927208	-564.173425	656.431728	910.903275	-471.218430	8.300843	1122.269172	-181.026306	119.679985	1153.579496	-346.082828	159.787549	1110.546261	-49.322946	171.945325	1102.159604	-328.533345	201.375592	1063.609402	-80.376579	41.024007	1146.750788	-123.099659	24.114240	1167.519291	-227.534684	132.111201	960.143198	-20.840268	118.985178	1058.737179	-394.716942	207.296482	848.692516	-33.004521	269.527494	786.463496	-41.586935	286.074659	700.414109	-57.410849	297.616712	802.326367	-59.602143	319.792914	611.821046	-92.429312	304.376478	595.499178	-190.320822	273.771726	522.993835	-61.162655	270.230441	434.323105	-75.395728	223.660029	360.177871	-74.035323	293.744230	430.590792	-107.025982	188.963030	264.948530	-72.356471	190.728495	273.145705	-149.424391	106.551456	262.712714	-112.558872	336.040803	130.106435	-130.983169	259.529640	153.185554	-61.894591	252.570732	1016.479656	-385.032043	335.844932	1010.135526	-369.442027	344.250569	1036.314878	-341.950363	412.784147	962.762460	-373.852529	492.515544	896.129045	-359.899534	497.937308	869.117003	-258.758304	278.202881	596.930231	-405.011463	289.244788	598.272757	-329.747001	194.896470	576.610345	-370.683292	347.331820	490.953719	-430.341739	437.800939	817.144817	-388.506647	404.961318	736.468778	-390.177543	334.769791	682.358662	-397.649602	426.399787	719.560786	-362.532552	439.995660	483.810690	-360.525606	-64.444794	853.242257	-234.576759	20.892427	86.729392	-441.728791	21.143833	84.251206	-43.412727	
